<svg width="25" height="24" viewBox="0 0 25 24" fill="none" xmlns="http://www.w3.org/2000/svg">
<path d="M12.5753 8.87628C10.855 8.87628 9.45109 10.2802 9.45109 12.0005C9.45109 13.7208 10.855 15.1247 12.5753 15.1247C14.2956 15.1247 15.6995 13.7208 15.6995 12.0005C15.6995 10.2802 14.2956 8.87628 12.5753 8.87628ZM21.9456 12.0005C21.9456 10.7068 21.9573 9.42472 21.8847 8.13331C21.812 6.63331 21.4698 5.30206 20.373 4.20519C19.2737 3.10597 17.9448 2.76613 16.4448 2.69347C15.1511 2.62081 13.8691 2.63253 12.5776 2.63253C11.2839 2.63253 10.0019 2.62081 8.71046 2.69347C7.21046 2.76613 5.87921 3.10831 4.78234 4.20519C3.68312 5.30441 3.34328 6.63331 3.27062 8.13331C3.19796 9.42706 3.20968 10.7091 3.20968 12.0005C3.20968 13.2919 3.19796 14.5763 3.27062 15.8677C3.34328 17.3677 3.68546 18.6989 4.78234 19.7958C5.88156 20.895 7.21046 21.2349 8.71046 21.3075C10.0042 21.3802 11.2862 21.3685 12.5776 21.3685C13.8714 21.3685 15.1534 21.3802 16.4448 21.3075C17.9448 21.2349 19.2761 20.8927 20.373 19.7958C21.4722 18.6966 21.812 17.3677 21.8847 15.8677C21.9597 14.5763 21.9456 13.2943 21.9456 12.0005ZM12.5753 16.8075C9.91515 16.8075 7.76828 14.6607 7.76828 12.0005C7.76828 9.34035 9.91515 7.19347 12.5753 7.19347C15.2355 7.19347 17.3823 9.34035 17.3823 12.0005C17.3823 14.6607 15.2355 16.8075 12.5753 16.8075ZM17.5792 8.11925C16.9581 8.11925 16.4566 7.61769 16.4566 6.9966C16.4566 6.3755 16.9581 5.87394 17.5792 5.87394C18.2003 5.87394 18.7019 6.3755 18.7019 6.9966C18.7021 7.14408 18.6731 7.29015 18.6168 7.42644C18.5604 7.56273 18.4777 7.68656 18.3735 7.79085C18.2692 7.89513 18.1453 7.97782 18.0091 8.03417C17.8728 8.09053 17.7267 8.11944 17.5792 8.11925Z" fill="#5D6588"/>
</svg>
